<svg width="1242" height="2688" viewBox="0 0 1242 2688" fill="none" xmlns="http://www.w3.org/2000/svg">
  <defs>
    <linearGradient id="bg" x1="96" y1="118" x2="1140" y2="2550" gradientUnits="userSpaceOnUse">
      <stop stop-color="#FDFEFF"/>
      <stop offset="1" stop-color="#EBF1FF"/>
    </linearGradient>
    <linearGradient id="panel" x1="246" y1="1026" x2="962" y2="2070" gradientUnits="userSpaceOnUse">
      <stop stop-color="white" stop-opacity="0.98"/>
      <stop offset="1" stop-color="#EEF2FF" stop-opacity="0.84"/>
    </linearGradient>
  </defs>
  <rect width="1242" height="2688" rx="72" fill="url(#bg)"/>
  <circle cx="106" cy="280" r="132" fill="#EEF3FF"/>
  <circle cx="1038" cy="2340" r="196" fill="#EAF0FF"/>
  <text x="104" y="290" fill="#6366F1" font-size="34" font-weight="700" font-family="Arial, sans-serif">工具连接</text>
  <text x="104" y="402" fill="#0F172A" font-size="122" font-weight="700" font-family="Arial, sans-serif">让 AI 连上</text>
  <text x="104" y="530" fill="#0F172A" font-size="122" font-weight="700" font-family="Arial, sans-serif">GitHub、文档和数据</text>
  <text x="104" y="640" fill="#475569" font-size="44" font-weight="400" font-family="Arial, sans-serif">MCP 模板、步骤和安全提示都整理好了，按顺序接入更稳。</text>

  <rect x="206" y="860" width="830" height="1568" rx="104" fill="#F9FBFF" stroke="white" stroke-opacity="0.88" stroke-width="10"/>
  <rect x="254" y="924" width="734" height="1440" rx="84" fill="url(#panel)" stroke="#DCE4F1" stroke-width="4"/>

  <circle cx="620" cy="1472" r="86" fill="#5A6BEC"/>
  <circle cx="392" cy="1228" r="68" fill="#EEF2FF"/>
  <circle cx="850" cy="1228" r="68" fill="#EEF2FF"/>
  <circle cx="894" cy="1788" r="68" fill="#EEF2FF"/>
  <circle cx="340" cy="1828" r="68" fill="#EEF2FF"/>

  <path d="M448 1264L554 1398" stroke="#5A6BEC" stroke-width="14" stroke-linecap="round"/>
  <path d="M794 1264L686 1398" stroke="#5A6BEC" stroke-width="14" stroke-linecap="round"/>
  <path d="M820 1748L692 1552" stroke="#5A6BEC" stroke-width="14" stroke-linecap="round"/>
  <path d="M396 1788L548 1544" stroke="#5A6BEC" stroke-width="14" stroke-linecap="round"/>

  <rect x="338" y="1184" width="108" height="88" rx="24" fill="white"/>
  <rect x="796" y="1184" width="108" height="88" rx="24" fill="white"/>
  <rect x="840" y="1744" width="108" height="88" rx="24" fill="white"/>
  <rect x="286" y="1784" width="108" height="88" rx="24" fill="white"/>

  <rect x="350" y="1988" width="540" height="250" rx="46" fill="white" fill-opacity="0.92"/>
  <rect x="394" y="2050" width="172" height="30" rx="15" fill="#0F172A"/>
  <rect x="394" y="2114" width="362" height="24" rx="12" fill="#CBD4FF"/>
  <rect x="394" y="2158" width="284" height="24" rx="12" fill="#D7DFFF"/>
  <rect x="394" y="2212" width="198" height="58" rx="29" fill="#EEF2FF"/>
  <rect x="614" y="2212" width="152" height="58" rx="29" fill="#EEF2FF"/>
</svg>
